<mxfile host="Electron" modified="2024-03-17T16:06:04.052Z" agent="Mozilla/5.0 (Windows NT 10.0; Win64; x64) AppleWebKit/537.36 (KHTML, like Gecko) draw.io/24.0.4 Chrome/120.0.6099.109 Electron/28.1.0 Safari/537.36" etag="2UjahZLkU6Nig7Y7-2te" version="24.0.4" type="device">
  <diagram name="Pagina-1" id="pkBIwdH1sJY0sm16Mrc1">
    <mxGraphModel dx="1084" dy="951" grid="1" gridSize="10" guides="1" tooltips="1" connect="1" arrows="1" fold="1" page="1" pageScale="1" pageWidth="827" pageHeight="1169" background="#ffffff" math="0" shadow="0">
      <root>
        <mxCell id="0" />
        <mxCell id="1" parent="0" />
        <mxCell id="1XvFdHMV74RfDs72s8od-14" style="edgeStyle=orthogonalEdgeStyle;rounded=0;orthogonalLoop=1;jettySize=auto;html=1;exitX=0.5;exitY=1;exitDx=0;exitDy=0;entryX=0.5;entryY=0;entryDx=0;entryDy=0;endArrow=doubleBlock;endFill=1;" edge="1" parent="1" source="1XvFdHMV74RfDs72s8od-1" target="1XvFdHMV74RfDs72s8od-11">
          <mxGeometry relative="1" as="geometry" />
        </mxCell>
        <mxCell id="1XvFdHMV74RfDs72s8od-15" style="edgeStyle=orthogonalEdgeStyle;rounded=0;orthogonalLoop=1;jettySize=auto;html=1;exitX=1;exitY=0.5;exitDx=0;exitDy=0;entryX=0;entryY=0.5;entryDx=0;entryDy=0;endArrow=doubleBlock;endFill=1;" edge="1" parent="1" source="1XvFdHMV74RfDs72s8od-1" target="1XvFdHMV74RfDs72s8od-3">
          <mxGeometry relative="1" as="geometry" />
        </mxCell>
        <mxCell id="1XvFdHMV74RfDs72s8od-23" style="edgeStyle=orthogonalEdgeStyle;rounded=0;orthogonalLoop=1;jettySize=auto;html=1;exitX=0.25;exitY=0;exitDx=0;exitDy=0;entryX=0;entryY=0.5;entryDx=0;entryDy=0;exitPerimeter=0;" edge="1" parent="1" source="1XvFdHMV74RfDs72s8od-1" target="1XvFdHMV74RfDs72s8od-17">
          <mxGeometry relative="1" as="geometry" />
        </mxCell>
        <mxCell id="1XvFdHMV74RfDs72s8od-26" style="edgeStyle=orthogonalEdgeStyle;rounded=0;orthogonalLoop=1;jettySize=auto;html=1;exitX=0.25;exitY=0;exitDx=0;exitDy=0;entryX=0;entryY=0.5;entryDx=0;entryDy=0;" edge="1" parent="1" source="1XvFdHMV74RfDs72s8od-1" target="1XvFdHMV74RfDs72s8od-18">
          <mxGeometry relative="1" as="geometry" />
        </mxCell>
        <mxCell id="1XvFdHMV74RfDs72s8od-74" style="edgeStyle=orthogonalEdgeStyle;rounded=0;orthogonalLoop=1;jettySize=auto;html=1;exitX=1;exitY=0;exitDx=0;exitDy=0;entryX=0;entryY=0.5;entryDx=0;entryDy=0;endArrow=doubleBlock;endFill=1;" edge="1" parent="1" source="1XvFdHMV74RfDs72s8od-1" target="1XvFdHMV74RfDs72s8od-67">
          <mxGeometry relative="1" as="geometry">
            <Array as="points">
              <mxPoint x="260" y="517.5" />
              <mxPoint x="260" y="390.5" />
            </Array>
          </mxGeometry>
        </mxCell>
        <mxCell id="1XvFdHMV74RfDs72s8od-1" value="VENDING&lt;div&gt;MACHINE&lt;/div&gt;" style="rounded=0;whiteSpace=wrap;html=1;" vertex="1" parent="1">
          <mxGeometry x="100" y="517.5" width="120" height="60" as="geometry" />
        </mxCell>
        <mxCell id="1XvFdHMV74RfDs72s8od-9" style="edgeStyle=orthogonalEdgeStyle;rounded=0;orthogonalLoop=1;jettySize=auto;html=1;entryX=0.5;entryY=0;entryDx=0;entryDy=0;endArrow=doubleBlock;endFill=1;" edge="1" parent="1" source="1XvFdHMV74RfDs72s8od-2" target="1XvFdHMV74RfDs72s8od-7">
          <mxGeometry relative="1" as="geometry" />
        </mxCell>
        <mxCell id="1XvFdHMV74RfDs72s8od-16" style="edgeStyle=orthogonalEdgeStyle;rounded=0;orthogonalLoop=1;jettySize=auto;html=1;exitX=0;exitY=0.5;exitDx=0;exitDy=0;entryX=1;entryY=0.5;entryDx=0;entryDy=0;endArrow=none;endFill=1;" edge="1" parent="1" source="1XvFdHMV74RfDs72s8od-2" target="1XvFdHMV74RfDs72s8od-3">
          <mxGeometry relative="1" as="geometry" />
        </mxCell>
        <mxCell id="1XvFdHMV74RfDs72s8od-33" style="edgeStyle=orthogonalEdgeStyle;rounded=0;orthogonalLoop=1;jettySize=auto;html=1;exitX=0.25;exitY=0;exitDx=0;exitDy=0;entryX=0;entryY=0.5;entryDx=0;entryDy=0;" edge="1" parent="1" source="1XvFdHMV74RfDs72s8od-2" target="1XvFdHMV74RfDs72s8od-29">
          <mxGeometry relative="1" as="geometry" />
        </mxCell>
        <mxCell id="1XvFdHMV74RfDs72s8od-34" style="edgeStyle=orthogonalEdgeStyle;rounded=0;orthogonalLoop=1;jettySize=auto;html=1;exitX=0.25;exitY=0;exitDx=0;exitDy=0;entryX=0;entryY=0.5;entryDx=0;entryDy=0;" edge="1" parent="1" source="1XvFdHMV74RfDs72s8od-2" target="1XvFdHMV74RfDs72s8od-30">
          <mxGeometry relative="1" as="geometry" />
        </mxCell>
        <mxCell id="1XvFdHMV74RfDs72s8od-38" style="edgeStyle=orthogonalEdgeStyle;rounded=0;orthogonalLoop=1;jettySize=auto;html=1;exitX=0.25;exitY=0;exitDx=0;exitDy=0;entryX=0;entryY=0.5;entryDx=0;entryDy=0;" edge="1" parent="1" source="1XvFdHMV74RfDs72s8od-2" target="1XvFdHMV74RfDs72s8od-35">
          <mxGeometry relative="1" as="geometry" />
        </mxCell>
        <mxCell id="1XvFdHMV74RfDs72s8od-75" style="edgeStyle=orthogonalEdgeStyle;rounded=0;orthogonalLoop=1;jettySize=auto;html=1;exitX=0;exitY=0;exitDx=0;exitDy=0;entryX=1;entryY=0.5;entryDx=0;entryDy=0;endArrow=doubleBlock;endFill=1;" edge="1" parent="1" source="1XvFdHMV74RfDs72s8od-2" target="1XvFdHMV74RfDs72s8od-67">
          <mxGeometry relative="1" as="geometry">
            <Array as="points">
              <mxPoint x="450" y="517.5" />
              <mxPoint x="450" y="390.5" />
            </Array>
          </mxGeometry>
        </mxCell>
        <mxCell id="1XvFdHMV74RfDs72s8od-2" value="PRODUCT" style="rounded=0;whiteSpace=wrap;html=1;" vertex="1" parent="1">
          <mxGeometry x="490" y="517.5" width="120" height="60" as="geometry" />
        </mxCell>
        <mxCell id="1XvFdHMV74RfDs72s8od-3" value="CONTIENE" style="rhombus;whiteSpace=wrap;html=1;" vertex="1" parent="1">
          <mxGeometry x="290" y="507.5" width="130" height="80" as="geometry" />
        </mxCell>
        <mxCell id="1XvFdHMV74RfDs72s8od-10" style="edgeStyle=orthogonalEdgeStyle;rounded=0;orthogonalLoop=1;jettySize=auto;html=1;exitX=0.5;exitY=0;exitDx=0;exitDy=0;entryX=0.5;entryY=1;entryDx=0;entryDy=0;endArrow=doubleBlock;endFill=1;" edge="1" parent="1" source="1XvFdHMV74RfDs72s8od-4" target="1XvFdHMV74RfDs72s8od-7">
          <mxGeometry relative="1" as="geometry" />
        </mxCell>
        <mxCell id="1XvFdHMV74RfDs72s8od-51" style="edgeStyle=orthogonalEdgeStyle;rounded=0;orthogonalLoop=1;jettySize=auto;html=1;exitX=0.25;exitY=1;exitDx=0;exitDy=0;entryX=0;entryY=0.5;entryDx=0;entryDy=0;" edge="1" parent="1" source="1XvFdHMV74RfDs72s8od-4" target="1XvFdHMV74RfDs72s8od-46">
          <mxGeometry relative="1" as="geometry" />
        </mxCell>
        <mxCell id="1XvFdHMV74RfDs72s8od-52" style="edgeStyle=orthogonalEdgeStyle;rounded=0;orthogonalLoop=1;jettySize=auto;html=1;exitX=0.25;exitY=1;exitDx=0;exitDy=0;entryX=0;entryY=0.5;entryDx=0;entryDy=0;" edge="1" parent="1" source="1XvFdHMV74RfDs72s8od-4" target="1XvFdHMV74RfDs72s8od-45">
          <mxGeometry relative="1" as="geometry" />
        </mxCell>
        <mxCell id="1XvFdHMV74RfDs72s8od-4" value="SUPPLIER" style="rounded=0;whiteSpace=wrap;html=1;" vertex="1" parent="1">
          <mxGeometry x="490" y="767.5" width="120" height="60" as="geometry" />
        </mxCell>
        <mxCell id="1XvFdHMV74RfDs72s8od-13" style="edgeStyle=orthogonalEdgeStyle;rounded=0;orthogonalLoop=1;jettySize=auto;html=1;exitX=0.5;exitY=0;exitDx=0;exitDy=0;entryX=0.5;entryY=1;entryDx=0;entryDy=0;" edge="1" parent="1" source="1XvFdHMV74RfDs72s8od-6" target="1XvFdHMV74RfDs72s8od-11">
          <mxGeometry relative="1" as="geometry" />
        </mxCell>
        <mxCell id="1XvFdHMV74RfDs72s8od-59" style="edgeStyle=orthogonalEdgeStyle;rounded=0;orthogonalLoop=1;jettySize=auto;html=1;exitX=0.25;exitY=1;exitDx=0;exitDy=0;entryX=0;entryY=0.5;entryDx=0;entryDy=0;" edge="1" parent="1" source="1XvFdHMV74RfDs72s8od-6" target="1XvFdHMV74RfDs72s8od-54">
          <mxGeometry relative="1" as="geometry" />
        </mxCell>
        <mxCell id="1XvFdHMV74RfDs72s8od-60" style="edgeStyle=orthogonalEdgeStyle;rounded=0;orthogonalLoop=1;jettySize=auto;html=1;exitX=0.25;exitY=1;exitDx=0;exitDy=0;entryX=0;entryY=0.5;entryDx=0;entryDy=0;" edge="1" parent="1" source="1XvFdHMV74RfDs72s8od-6" target="1XvFdHMV74RfDs72s8od-53">
          <mxGeometry relative="1" as="geometry" />
        </mxCell>
        <mxCell id="1XvFdHMV74RfDs72s8od-6" value="MAINTENANCE" style="rounded=0;whiteSpace=wrap;html=1;" vertex="1" parent="1">
          <mxGeometry x="100" y="767.5" width="120" height="60" as="geometry" />
        </mxCell>
        <mxCell id="1XvFdHMV74RfDs72s8od-7" value="FORNIRE" style="rhombus;whiteSpace=wrap;html=1;" vertex="1" parent="1">
          <mxGeometry x="510" y="637.5" width="80" height="80" as="geometry" />
        </mxCell>
        <mxCell id="1XvFdHMV74RfDs72s8od-11" value="EFFETTUARE" style="rhombus;whiteSpace=wrap;html=1;" vertex="1" parent="1">
          <mxGeometry x="105" y="637.5" width="110" height="80" as="geometry" />
        </mxCell>
        <mxCell id="1XvFdHMV74RfDs72s8od-17" value="&lt;span style=&quot;color: rgba(0, 0, 0, 0); font-family: monospace; font-size: 0px; text-align: start; text-wrap: nowrap;&quot;&gt;%3CmxGraphModel%3E%3Croot%3E%3CmxCell%20id%3D%220%22%2F%3E%3CmxCell%20id%3D%221%22%20parent%3D%220%22%2F%3E%3CmxCell%20id%3D%222%22%20value%3D%22%22%20style%3D%22ellipse%3BwhiteSpace%3Dwrap%3Bhtml%3D1%3Baspect%3Dfixed%3B%22%20vertex%3D%221%22%20parent%3D%221%22%3E%3CmxGeometry%20x%3D%2245%22%20y%3D%2270%22%20width%3D%2220%22%20height%3D%2220%22%20as%3D%22geometry%22%2F%3E%3C%2FmxCell%3E%3C%2Froot%3E%3C%2FmxGraphModel%3E&lt;/span&gt;" style="ellipse;whiteSpace=wrap;html=1;aspect=fixed;" vertex="1" parent="1">
          <mxGeometry x="160" y="460.5" width="20" height="20" as="geometry" />
        </mxCell>
        <mxCell id="1XvFdHMV74RfDs72s8od-18" value="" style="ellipse;whiteSpace=wrap;html=1;aspect=fixed;" vertex="1" parent="1">
          <mxGeometry x="160" y="430.5" width="20" height="20" as="geometry" />
        </mxCell>
        <mxCell id="1XvFdHMV74RfDs72s8od-20" value="posizione" style="text;html=1;align=left;verticalAlign=middle;resizable=0;points=[];autosize=1;strokeColor=none;fillColor=none;" vertex="1" parent="1">
          <mxGeometry x="180" y="425.5" width="70" height="30" as="geometry" />
        </mxCell>
        <mxCell id="1XvFdHMV74RfDs72s8od-21" value="modello" style="text;html=1;align=left;verticalAlign=middle;resizable=0;points=[];autosize=1;strokeColor=none;fillColor=none;" vertex="1" parent="1">
          <mxGeometry x="180" y="455.5" width="70" height="30" as="geometry" />
        </mxCell>
        <mxCell id="1XvFdHMV74RfDs72s8od-29" value="&lt;span style=&quot;color: rgba(0, 0, 0, 0); font-family: monospace; font-size: 0px; text-align: start; text-wrap: nowrap;&quot;&gt;%3CmxGraphModel%3E%3Croot%3E%3CmxCell%20id%3D%220%22%2F%3E%3CmxCell%20id%3D%221%22%20parent%3D%220%22%2F%3E%3CmxCell%20id%3D%222%22%20value%3D%22%22%20style%3D%22ellipse%3BwhiteSpace%3Dwrap%3Bhtml%3D1%3Baspect%3Dfixed%3B%22%20vertex%3D%221%22%20parent%3D%221%22%3E%3CmxGeometry%20x%3D%2245%22%20y%3D%2270%22%20width%3D%2220%22%20height%3D%2220%22%20as%3D%22geometry%22%2F%3E%3C%2FmxCell%3E%3C%2Froot%3E%3C%2FmxGraphModel%3E&lt;/span&gt;" style="ellipse;whiteSpace=wrap;html=1;aspect=fixed;" vertex="1" parent="1">
          <mxGeometry x="570" y="455.5" width="20" height="20" as="geometry" />
        </mxCell>
        <mxCell id="1XvFdHMV74RfDs72s8od-30" value="" style="ellipse;whiteSpace=wrap;html=1;aspect=fixed;" vertex="1" parent="1">
          <mxGeometry x="570" y="425.5" width="20" height="20" as="geometry" />
        </mxCell>
        <mxCell id="1XvFdHMV74RfDs72s8od-31" value="nome" style="text;html=1;align=left;verticalAlign=middle;resizable=0;points=[];autosize=1;strokeColor=none;fillColor=none;" vertex="1" parent="1">
          <mxGeometry x="590" y="420.5" width="50" height="30" as="geometry" />
        </mxCell>
        <mxCell id="1XvFdHMV74RfDs72s8od-32" value="prezzo" style="text;html=1;align=left;verticalAlign=middle;resizable=0;points=[];autosize=1;strokeColor=none;fillColor=none;" vertex="1" parent="1">
          <mxGeometry x="590" y="450.5" width="60" height="30" as="geometry" />
        </mxCell>
        <mxCell id="1XvFdHMV74RfDs72s8od-35" value="&lt;span style=&quot;color: rgba(0, 0, 0, 0); font-family: monospace; font-size: 0px; text-align: start; text-wrap: nowrap;&quot;&gt;%3CmxGraphModel%3E%3Croot%3E%3CmxCell%20id%3D%220%22%2F%3E%3CmxCell%20id%3D%221%22%20parent%3D%220%22%2F%3E%3CmxCell%20id%3D%222%22%20value%3D%22%22%20style%3D%22ellipse%3BwhiteSpace%3Dwrap%3Bhtml%3D1%3Baspect%3Dfixed%3B%22%20vertex%3D%221%22%20parent%3D%221%22%3E%3CmxGeometry%20x%3D%2245%22%20y%3D%2270%22%20width%3D%2220%22%20height%3D%2220%22%20as%3D%22geometry%22%2F%3E%3C%2FmxCell%3E%3C%2Froot%3E%3C%2FmxGraphModel%3E&lt;/span&gt;" style="ellipse;whiteSpace=wrap;html=1;aspect=fixed;" vertex="1" parent="1">
          <mxGeometry x="570" y="482.5" width="20" height="20" as="geometry" />
        </mxCell>
        <mxCell id="1XvFdHMV74RfDs72s8od-36" value="quantita" style="text;html=1;align=left;verticalAlign=middle;resizable=0;points=[];autosize=1;strokeColor=none;fillColor=none;" vertex="1" parent="1">
          <mxGeometry x="590" y="477.5" width="70" height="30" as="geometry" />
        </mxCell>
        <mxCell id="1XvFdHMV74RfDs72s8od-45" value="&lt;span style=&quot;color: rgba(0, 0, 0, 0); font-family: monospace; font-size: 0px; text-align: start; text-wrap: nowrap;&quot;&gt;%3CmxGraphModel%3E%3Croot%3E%3CmxCell%20id%3D%220%22%2F%3E%3CmxCell%20id%3D%221%22%20parent%3D%220%22%2F%3E%3CmxCell%20id%3D%222%22%20value%3D%22%22%20style%3D%22ellipse%3BwhiteSpace%3Dwrap%3Bhtml%3D1%3Baspect%3Dfixed%3B%22%20vertex%3D%221%22%20parent%3D%221%22%3E%3CmxGeometry%20x%3D%2245%22%20y%3D%2270%22%20width%3D%2220%22%20height%3D%2220%22%20as%3D%22geometry%22%2F%3E%3C%2FmxCell%3E%3C%2Froot%3E%3C%2FmxGraphModel%3E&lt;/span&gt;" style="ellipse;whiteSpace=wrap;html=1;aspect=fixed;" vertex="1" parent="1">
          <mxGeometry x="570" y="872.5" width="20" height="20" as="geometry" />
        </mxCell>
        <mxCell id="1XvFdHMV74RfDs72s8od-46" value="" style="ellipse;whiteSpace=wrap;html=1;aspect=fixed;" vertex="1" parent="1">
          <mxGeometry x="570" y="842.5" width="20" height="20" as="geometry" />
        </mxCell>
        <mxCell id="1XvFdHMV74RfDs72s8od-47" value="nome" style="text;html=1;align=left;verticalAlign=middle;resizable=0;points=[];autosize=1;strokeColor=none;fillColor=none;" vertex="1" parent="1">
          <mxGeometry x="590" y="837.5" width="50" height="30" as="geometry" />
        </mxCell>
        <mxCell id="1XvFdHMV74RfDs72s8od-48" value="telefono" style="text;html=1;align=left;verticalAlign=middle;resizable=0;points=[];autosize=1;strokeColor=none;fillColor=none;" vertex="1" parent="1">
          <mxGeometry x="590" y="867.5" width="70" height="30" as="geometry" />
        </mxCell>
        <mxCell id="1XvFdHMV74RfDs72s8od-53" value="&lt;span style=&quot;color: rgba(0, 0, 0, 0); font-family: monospace; font-size: 0px; text-align: start; text-wrap: nowrap;&quot;&gt;%3CmxGraphModel%3E%3Croot%3E%3CmxCell%20id%3D%220%22%2F%3E%3CmxCell%20id%3D%221%22%20parent%3D%220%22%2F%3E%3CmxCell%20id%3D%222%22%20value%3D%22%22%20style%3D%22ellipse%3BwhiteSpace%3Dwrap%3Bhtml%3D1%3Baspect%3Dfixed%3B%22%20vertex%3D%221%22%20parent%3D%221%22%3E%3CmxGeometry%20x%3D%2245%22%20y%3D%2270%22%20width%3D%2220%22%20height%3D%2220%22%20as%3D%22geometry%22%2F%3E%3C%2FmxCell%3E%3C%2Froot%3E%3C%2FmxGraphModel%3E&lt;/span&gt;" style="ellipse;whiteSpace=wrap;html=1;aspect=fixed;" vertex="1" parent="1">
          <mxGeometry x="170" y="877.5" width="20" height="20" as="geometry" />
        </mxCell>
        <mxCell id="1XvFdHMV74RfDs72s8od-54" value="" style="ellipse;whiteSpace=wrap;html=1;aspect=fixed;" vertex="1" parent="1">
          <mxGeometry x="170" y="847.5" width="20" height="20" as="geometry" />
        </mxCell>
        <mxCell id="1XvFdHMV74RfDs72s8od-55" value="data" style="text;html=1;align=left;verticalAlign=middle;resizable=0;points=[];autosize=1;strokeColor=none;fillColor=none;" vertex="1" parent="1">
          <mxGeometry x="190" y="842.5" width="50" height="30" as="geometry" />
        </mxCell>
        <mxCell id="1XvFdHMV74RfDs72s8od-56" value="descrizione" style="text;html=1;align=left;verticalAlign=middle;resizable=0;points=[];autosize=1;strokeColor=none;fillColor=none;" vertex="1" parent="1">
          <mxGeometry x="190" y="872.5" width="80" height="30" as="geometry" />
        </mxCell>
        <mxCell id="1XvFdHMV74RfDs72s8od-61" value="" style="endArrow=none;html=1;rounded=0;" edge="1" parent="1">
          <mxGeometry width="50" height="50" relative="1" as="geometry">
            <mxPoint x="140" y="587.5" as="sourcePoint" />
            <mxPoint x="180" y="587.5" as="targetPoint" />
          </mxGeometry>
        </mxCell>
        <mxCell id="1XvFdHMV74RfDs72s8od-62" value="" style="endArrow=none;html=1;rounded=0;" edge="1" parent="1">
          <mxGeometry width="50" height="50" relative="1" as="geometry">
            <mxPoint x="240" y="557.5" as="sourcePoint" />
            <mxPoint x="240" y="537.5" as="targetPoint" />
          </mxGeometry>
        </mxCell>
        <mxCell id="1XvFdHMV74RfDs72s8od-64" value="" style="endArrow=none;html=1;rounded=0;" edge="1" parent="1">
          <mxGeometry width="50" height="50" relative="1" as="geometry">
            <mxPoint x="530" y="757.5" as="sourcePoint" />
            <mxPoint x="570" y="757.5" as="targetPoint" />
          </mxGeometry>
        </mxCell>
        <mxCell id="1XvFdHMV74RfDs72s8od-65" style="edgeStyle=orthogonalEdgeStyle;rounded=0;orthogonalLoop=1;jettySize=auto;html=1;exitX=0.5;exitY=0;exitDx=0;exitDy=0;entryX=0;entryY=0.5;entryDx=0;entryDy=0;" edge="1" parent="1" source="1XvFdHMV74RfDs72s8od-67" target="1XvFdHMV74RfDs72s8od-68">
          <mxGeometry relative="1" as="geometry" />
        </mxCell>
        <mxCell id="1XvFdHMV74RfDs72s8od-66" style="edgeStyle=orthogonalEdgeStyle;rounded=0;orthogonalLoop=1;jettySize=auto;html=1;exitX=0.5;exitY=0;exitDx=0;exitDy=0;entryX=0;entryY=0.5;entryDx=0;entryDy=0;" edge="1" parent="1" source="1XvFdHMV74RfDs72s8od-67" target="1XvFdHMV74RfDs72s8od-70">
          <mxGeometry relative="1" as="geometry" />
        </mxCell>
        <mxCell id="1XvFdHMV74RfDs72s8od-67" value="TRANSACTION" style="rhombus;whiteSpace=wrap;html=1;" vertex="1" parent="1">
          <mxGeometry x="290" y="350.5" width="130" height="80" as="geometry" />
        </mxCell>
        <mxCell id="1XvFdHMV74RfDs72s8od-68" value="&lt;span style=&quot;color: rgba(0, 0, 0, 0); font-family: monospace; font-size: 0px; text-align: start; text-wrap: nowrap;&quot;&gt;%3CmxGraphModel%3E%3Croot%3E%3CmxCell%20id%3D%220%22%2F%3E%3CmxCell%20id%3D%221%22%20parent%3D%220%22%2F%3E%3CmxCell%20id%3D%222%22%20value%3D%22%22%20style%3D%22ellipse%3BwhiteSpace%3Dwrap%3Bhtml%3D1%3Baspect%3Dfixed%3B%22%20vertex%3D%221%22%20parent%3D%221%22%3E%3CmxGeometry%20x%3D%2245%22%20y%3D%2270%22%20width%3D%2220%22%20height%3D%2220%22%20as%3D%22geometry%22%2F%3E%3C%2FmxCell%3E%3C%2Froot%3E%3C%2FmxGraphModel%3E&lt;/span&gt;" style="ellipse;whiteSpace=wrap;html=1;aspect=fixed;" vertex="1" parent="1">
          <mxGeometry x="390" y="315" width="20" height="20" as="geometry" />
        </mxCell>
        <mxCell id="1XvFdHMV74RfDs72s8od-69" value="importo" style="text;html=1;align=left;verticalAlign=middle;resizable=0;points=[];autosize=1;strokeColor=none;fillColor=none;" vertex="1" parent="1">
          <mxGeometry x="410" y="310" width="60" height="30" as="geometry" />
        </mxCell>
        <mxCell id="1XvFdHMV74RfDs72s8od-70" value="&lt;span style=&quot;color: rgba(0, 0, 0, 0); font-family: monospace; font-size: 0px; text-align: start; text-wrap: nowrap;&quot;&gt;%3CmxGraphModel%3E%3Croot%3E%3CmxCell%20id%3D%220%22%2F%3E%3CmxCell%20id%3D%221%22%20parent%3D%220%22%2F%3E%3CmxCell%20id%3D%222%22%20value%3D%22%22%20style%3D%22ellipse%3BwhiteSpace%3Dwrap%3Bhtml%3D1%3Baspect%3Dfixed%3B%22%20vertex%3D%221%22%20parent%3D%221%22%3E%3CmxGeometry%20x%3D%2245%22%20y%3D%2270%22%20width%3D%2220%22%20height%3D%2220%22%20as%3D%22geometry%22%2F%3E%3C%2FmxCell%3E%3C%2Froot%3E%3C%2FmxGraphModel%3E&lt;/span&gt;" style="ellipse;whiteSpace=wrap;html=1;aspect=fixed;" vertex="1" parent="1">
          <mxGeometry x="390" y="285" width="20" height="20" as="geometry" />
        </mxCell>
        <mxCell id="1XvFdHMV74RfDs72s8od-72" value="data_e_ora" style="text;html=1;align=left;verticalAlign=middle;resizable=0;points=[];autosize=1;strokeColor=none;fillColor=none;" vertex="1" parent="1">
          <mxGeometry x="410" y="280" width="80" height="30" as="geometry" />
        </mxCell>
        <mxCell id="1XvFdHMV74RfDs72s8od-73" value="" style="endArrow=none;html=1;rounded=0;" edge="1" parent="1">
          <mxGeometry width="50" height="50" relative="1" as="geometry">
            <mxPoint x="480" y="562.5" as="sourcePoint" />
            <mxPoint x="480" y="532.5" as="targetPoint" />
          </mxGeometry>
        </mxCell>
        <mxCell id="1XvFdHMV74RfDs72s8od-76" value="" style="endArrow=none;html=1;rounded=0;" edge="1" parent="1">
          <mxGeometry width="50" height="50" relative="1" as="geometry">
            <mxPoint x="470" y="532.5" as="sourcePoint" />
            <mxPoint x="470" y="502.5" as="targetPoint" />
          </mxGeometry>
        </mxCell>
        <mxCell id="1XvFdHMV74RfDs72s8od-77" value="" style="endArrow=none;html=1;rounded=0;" edge="1" parent="1">
          <mxGeometry width="50" height="50" relative="1" as="geometry">
            <mxPoint x="249.26" y="527.5" as="sourcePoint" />
            <mxPoint x="249.26" y="507.5" as="targetPoint" />
          </mxGeometry>
        </mxCell>
      </root>
    </mxGraphModel>
  </diagram>
</mxfile>
